<mxfile host="www.draw.io" modified="2020-02-25T09:09:57.509Z" agent="Mozilla/5.0 (X11; Ubuntu; Linux x86_64; rv:73.0) Gecko/20100101 Firefox/73.0" etag="eCKX-MxHhJAN1EWOgtFE" version="12.7.4" type="github">
  <diagram id="6OnpdtAAKKhr5p_AtVlW" name="Page-1">
    <mxGraphModel dx="1422" dy="915" grid="1" gridSize="10" guides="1" tooltips="1" connect="1" arrows="1" fold="1" page="1" pageScale="1" pageWidth="1169" pageHeight="827" math="0" shadow="0">
      <root>
        <mxCell id="0" />
        <mxCell id="1" parent="0" />
        <mxCell id="jXuBJ1nVAAcOgqzTFtKq-44" value="&lt;div&gt;Command center&lt;/div&gt;" style="rounded=0;whiteSpace=wrap;html=1;dashed=1;labelPosition=center;verticalLabelPosition=top;align=center;verticalAlign=bottom;" parent="1" vertex="1">
          <mxGeometry x="860" y="40" width="210" height="310" as="geometry" />
        </mxCell>
        <mxCell id="HqgvPJcCoIpI_5qpytdA-13" style="edgeStyle=orthogonalEdgeStyle;rounded=0;orthogonalLoop=1;jettySize=auto;html=1;exitX=0.25;exitY=1;exitDx=0;exitDy=0;entryX=0.326;entryY=0.006;entryDx=0;entryDy=0;entryPerimeter=0;startArrow=classic;startFill=1;endArrow=classic;endFill=1;" edge="1" parent="1" source="jXuBJ1nVAAcOgqzTFtKq-5" target="1Ipf9dVRUQRrrsdZAD5U-11">
          <mxGeometry relative="1" as="geometry" />
        </mxCell>
        <mxCell id="jXuBJ1nVAAcOgqzTFtKq-5" value="&lt;div&gt;Behaviour&lt;/div&gt;" style="rounded=0;whiteSpace=wrap;html=1;dashed=1;labelPosition=center;verticalLabelPosition=top;align=center;verticalAlign=bottom;" parent="1" vertex="1">
          <mxGeometry x="350" y="178" width="381.5" height="150" as="geometry" />
        </mxCell>
        <mxCell id="HqgvPJcCoIpI_5qpytdA-5" style="edgeStyle=orthogonalEdgeStyle;rounded=0;orthogonalLoop=1;jettySize=auto;html=1;exitX=0;exitY=0.5;exitDx=0;exitDy=0;entryX=0.999;entryY=0.421;entryDx=0;entryDy=0;entryPerimeter=0;endArrow=classic;endFill=1;startArrow=classic;startFill=1;" edge="1" parent="1" source="1Ipf9dVRUQRrrsdZAD5U-7" target="jXuBJ1nVAAcOgqzTFtKq-5">
          <mxGeometry relative="1" as="geometry" />
        </mxCell>
        <mxCell id="1Ipf9dVRUQRrrsdZAD5U-7" value="&lt;b&gt;Commander&lt;/b&gt;&lt;br&gt;&lt;br&gt;&lt;div&gt;Controls:&lt;/div&gt;&lt;div&gt;- Behavior: start/stop&lt;br&gt;&lt;/div&gt;&lt;div&gt;- LED dome visualization&lt;/div&gt;&lt;div&gt;- Audio&lt;/div&gt;&lt;div&gt;- Navigation&lt;/div&gt;&lt;div&gt;- Manual mode&lt;br&gt;&lt;/div&gt;&lt;div&gt;&lt;br&gt;&lt;/div&gt;" style="rounded=0;whiteSpace=wrap;html=1;align=left;fillColor=#d5e8d4;strokeColor=#82b366;fontColor=#000000;" parent="1" vertex="1">
          <mxGeometry x="880" y="162" width="170.25" height="158" as="geometry" />
        </mxCell>
        <mxCell id="1Ipf9dVRUQRrrsdZAD5U-39" value="&lt;div&gt;cyborg_eventscheduler&lt;/div&gt;" style="rounded=0;whiteSpace=wrap;html=1;fillColor=#d5e8d4;strokeColor=#82b366;fontColor=#000000;" parent="1" vertex="1">
          <mxGeometry x="365.5" y="198" width="140" height="30" as="geometry" />
        </mxCell>
        <mxCell id="1Ipf9dVRUQRrrsdZAD5U-32" value="cyborg_behaviour" style="rounded=0;whiteSpace=wrap;html=1;align=center;fillColor=#d5e8d4;strokeColor=#82b366;fontColor=#000000;" parent="1" vertex="1">
          <mxGeometry x="365.5" y="277" width="140" height="30" as="geometry" />
        </mxCell>
        <mxCell id="1Ipf9dVRUQRrrsdZAD5U-43" style="edgeStyle=orthogonalEdgeStyle;rounded=0;orthogonalLoop=1;jettySize=auto;html=1;exitX=1;exitY=0.5;exitDx=0;exitDy=0;entryX=0.5;entryY=1;entryDx=0;entryDy=0;startArrow=classic;startFill=1;" parent="1" source="1Ipf9dVRUQRrrsdZAD5U-11" target="1Ipf9dVRUQRrrsdZAD5U-7" edge="1">
          <mxGeometry relative="1" as="geometry" />
        </mxCell>
        <mxCell id="HqgvPJcCoIpI_5qpytdA-9" style="edgeStyle=orthogonalEdgeStyle;rounded=0;orthogonalLoop=1;jettySize=auto;html=1;exitX=0.5;exitY=0;exitDx=0;exitDy=0;entryX=0.5;entryY=1;entryDx=0;entryDy=0;startArrow=none;startFill=0;endArrow=classic;endFill=1;" edge="1" parent="1" source="1Ipf9dVRUQRrrsdZAD5U-44" target="liCN6XQj_wZ74_ZR0JUV-1">
          <mxGeometry relative="1" as="geometry" />
        </mxCell>
        <mxCell id="1Ipf9dVRUQRrrsdZAD5U-44" value="ZED camera" style="rounded=0;whiteSpace=wrap;html=1;fillColor=#dae8fc;strokeColor=#6c8ebf;fontColor=#000000;" parent="1" vertex="1">
          <mxGeometry x="220.5" y="330.5" width="80" height="27.5" as="geometry" />
        </mxCell>
        <mxCell id="1Ipf9dVRUQRrrsdZAD5U-11" value="&lt;div&gt;Output/controller ROS nodes&lt;/div&gt;" style="rounded=0;whiteSpace=wrap;html=1;dashed=1;labelPosition=center;verticalLabelPosition=top;align=center;verticalAlign=bottom;" parent="1" vertex="1">
          <mxGeometry x="210" y="420" width="720" height="160" as="geometry" />
        </mxCell>
        <mxCell id="1Ipf9dVRUQRrrsdZAD5U-8" value="&lt;div align=&quot;left&quot;&gt;cyborg_led_dome&lt;/div&gt;&lt;div align=&quot;left&quot;&gt;&lt;span style=&quot;font-weight: normal&quot;&gt;- set LED visualization&lt;/span&gt;&lt;br&gt;&lt;/div&gt;" style="rounded=0;whiteSpace=wrap;html=1;fillColor=#d5e8d4;strokeColor=#82b366;fontColor=#000000;fontStyle=1;align=left;" parent="1" vertex="1">
          <mxGeometry x="224.5" y="442" width="136" height="70" as="geometry" />
        </mxCell>
        <mxCell id="1Ipf9dVRUQRrrsdZAD5U-9" value="&lt;div align=&quot;left&quot;&gt;cyborg_audio&lt;/div&gt;&lt;div align=&quot;left&quot;&gt;&lt;span style=&quot;font-weight: normal&quot;&gt;- play sound&lt;/span&gt;&lt;/div&gt;&lt;div align=&quot;left&quot;&gt;&lt;span style=&quot;font-weight: normal&quot;&gt;- text to speach&lt;/span&gt;&lt;br&gt;&lt;/div&gt;" style="rounded=0;whiteSpace=wrap;html=1;fillColor=#d5e8d4;strokeColor=#82b366;fontColor=#000000;fontStyle=1;align=left;" parent="1" vertex="1">
          <mxGeometry x="408" y="442" width="136" height="70" as="geometry" />
        </mxCell>
        <mxCell id="1Ipf9dVRUQRrrsdZAD5U-10" value="&lt;div align=&quot;left&quot;&gt;cyborg_navigation&lt;/div&gt;&lt;div align=&quot;left&quot;&gt;&lt;span style=&quot;font-weight: normal&quot;&gt;- go to point&lt;/span&gt;&lt;/div&gt;&lt;div align=&quot;left&quot;&gt;&lt;span style=&quot;font-weight: normal&quot;&gt;- wander&lt;/span&gt;&lt;/div&gt;&lt;div align=&quot;left&quot;&gt;&lt;span style=&quot;font-weight: normal&quot;&gt;- dock&lt;/span&gt;&lt;br&gt;&lt;/div&gt;" style="rounded=0;whiteSpace=wrap;html=1;fillColor=#d5e8d4;strokeColor=#82b366;fontColor=#000000;fontStyle=1;align=left;" parent="1" vertex="1">
          <mxGeometry x="591" y="442" width="136" height="70" as="geometry" />
        </mxCell>
        <mxCell id="1Ipf9dVRUQRrrsdZAD5U-47" style="edgeStyle=orthogonalEdgeStyle;rounded=0;orthogonalLoop=1;jettySize=auto;html=1;exitX=0.5;exitY=1;exitDx=0;exitDy=0;startArrow=classic;startFill=1;fontColor=#000;" parent="1" source="1Ipf9dVRUQRrrsdZAD5U-46" target="1Ipf9dVRUQRrrsdZAD5U-7" edge="1">
          <mxGeometry relative="1" as="geometry" />
        </mxCell>
        <mxCell id="1Ipf9dVRUQRrrsdZAD5U-46" value="GUI&lt;br&gt;" style="rounded=0;whiteSpace=wrap;html=1;align=center;fillColor=#e1d5e7;strokeColor=#9673a6;fontColor=#000;" parent="1" vertex="1">
          <mxGeometry x="880.25" y="60" width="50" height="40" as="geometry" />
        </mxCell>
        <mxCell id="gCPgkVrLY4gSI0CWrWjf-4" style="edgeStyle=orthogonalEdgeStyle;rounded=0;orthogonalLoop=1;jettySize=auto;html=1;exitX=0.5;exitY=1;exitDx=0;exitDy=0;entryX=0.5;entryY=0;entryDx=0;entryDy=0;startArrow=classic;startFill=1;" parent="1" source="gCPgkVrLY4gSI0CWrWjf-2" target="1Ipf9dVRUQRrrsdZAD5U-7" edge="1">
          <mxGeometry relative="1" as="geometry" />
        </mxCell>
        <mxCell id="gCPgkVrLY4gSI0CWrWjf-2" value="CLI" style="rounded=0;whiteSpace=wrap;html=1;align=center;fillColor=#e1d5e7;strokeColor=#9673a6;fontColor=#000;" parent="1" vertex="1">
          <mxGeometry x="940.25" y="60" width="50" height="40" as="geometry" />
        </mxCell>
        <mxCell id="gCPgkVrLY4gSI0CWrWjf-5" style="edgeStyle=orthogonalEdgeStyle;rounded=0;orthogonalLoop=1;jettySize=auto;html=1;exitX=0.5;exitY=1;exitDx=0;exitDy=0;entryX=0.5;entryY=0;entryDx=0;entryDy=0;startArrow=classic;startFill=1;" parent="1" source="gCPgkVrLY4gSI0CWrWjf-3" target="1Ipf9dVRUQRrrsdZAD5U-7" edge="1">
          <mxGeometry relative="1" as="geometry" />
        </mxCell>
        <mxCell id="gCPgkVrLY4gSI0CWrWjf-3" value="Startup box" style="rounded=0;whiteSpace=wrap;html=1;align=center;fillColor=#e1d5e7;strokeColor=#9673a6;fontColor=#000;" parent="1" vertex="1">
          <mxGeometry x="1000.25" y="60" width="50" height="40" as="geometry" />
        </mxCell>
        <mxCell id="HqgvPJcCoIpI_5qpytdA-10" style="edgeStyle=orthogonalEdgeStyle;rounded=0;orthogonalLoop=1;jettySize=auto;html=1;exitX=1;exitY=0.5;exitDx=0;exitDy=0;entryX=0;entryY=0.5;entryDx=0;entryDy=0;startArrow=none;startFill=0;endArrow=classic;endFill=1;" edge="1" parent="1" source="liCN6XQj_wZ74_ZR0JUV-1" target="1Ipf9dVRUQRrrsdZAD5U-39">
          <mxGeometry relative="1" as="geometry">
            <Array as="points">
              <mxPoint x="330.5" y="271.5" />
              <mxPoint x="330.5" y="213.5" />
            </Array>
          </mxGeometry>
        </mxCell>
        <mxCell id="liCN6XQj_wZ74_ZR0JUV-1" value="Vision" style="rounded=0;whiteSpace=wrap;html=1;fillColor=#d5e8d4;strokeColor=#82b366;fontColor=#000000;" parent="1" vertex="1">
          <mxGeometry x="220.5" y="251" width="80" height="40" as="geometry" />
        </mxCell>
        <mxCell id="HqgvPJcCoIpI_5qpytdA-8" style="edgeStyle=orthogonalEdgeStyle;rounded=0;orthogonalLoop=1;jettySize=auto;html=1;exitX=1;exitY=0.5;exitDx=0;exitDy=0;startArrow=none;startFill=0;endArrow=classic;endFill=1;" edge="1" parent="1" source="liCN6XQj_wZ74_ZR0JUV-4" target="1Ipf9dVRUQRrrsdZAD5U-39">
          <mxGeometry relative="1" as="geometry" />
        </mxCell>
        <mxCell id="liCN6XQj_wZ74_ZR0JUV-4" value="Time" style="rounded=0;whiteSpace=wrap;html=1;fillColor=#dae8fc;strokeColor=#6c8ebf;fontColor=#000000;" parent="1" vertex="1">
          <mxGeometry x="220.5" y="200.5" width="80" height="25" as="geometry" />
        </mxCell>
        <mxCell id="HqgvPJcCoIpI_5qpytdA-16" style="edgeStyle=orthogonalEdgeStyle;rounded=0;orthogonalLoop=1;jettySize=auto;html=1;exitX=0.5;exitY=0;exitDx=0;exitDy=0;entryX=0.492;entryY=1.008;entryDx=0;entryDy=0;entryPerimeter=0;startArrow=classic;startFill=1;endArrow=classic;endFill=1;" edge="1" parent="1" source="liCN6XQj_wZ74_ZR0JUV-7" target="1Ipf9dVRUQRrrsdZAD5U-11">
          <mxGeometry relative="1" as="geometry" />
        </mxCell>
        <mxCell id="liCN6XQj_wZ74_ZR0JUV-7" value="Hardware" style="rounded=0;whiteSpace=wrap;html=1;labelPosition=center;verticalLabelPosition=bottom;align=center;verticalAlign=top;dashed=1;" parent="1" vertex="1">
          <mxGeometry x="264.5" y="622.5" width="600" height="160" as="geometry" />
        </mxCell>
        <mxCell id="liCN6XQj_wZ74_ZR0JUV-13" value="LED dome" style="rounded=0;whiteSpace=wrap;html=1;fillColor=#dae8fc;strokeColor=#6c8ebf;fontColor=#000000;" parent="1" vertex="1">
          <mxGeometry x="294.5" y="635" width="120" height="40" as="geometry" />
        </mxCell>
        <mxCell id="liCN6XQj_wZ74_ZR0JUV-14" value="Pioneer LX" style="rounded=0;whiteSpace=wrap;html=1;fillColor=#dae8fc;strokeColor=#6c8ebf;fontColor=#000000;" parent="1" vertex="1">
          <mxGeometry x="608" y="635" width="120" height="40" as="geometry" />
        </mxCell>
        <mxCell id="liCN6XQj_wZ74_ZR0JUV-15" value="Speakers" style="rounded=0;whiteSpace=wrap;html=1;fillColor=#dae8fc;strokeColor=#6c8ebf;fontColor=#000000;" parent="1" vertex="1">
          <mxGeometry x="451" y="635" width="120" height="40" as="geometry" />
        </mxCell>
        <mxCell id="liCN6XQj_wZ74_ZR0JUV-21" value="&lt;div&gt;&lt;font color=&quot;#000000&quot;&gt;Description&lt;/font&gt;&lt;/div&gt;&lt;div&gt;&lt;font color=&quot;#000000&quot;&gt;&lt;br&gt;&lt;/font&gt;&lt;/div&gt;" style="rounded=0;whiteSpace=wrap;html=1;fontColor=#000000;labelPosition=center;verticalLabelPosition=bottom;align=center;verticalAlign=top;dashed=1;dashPattern=1 4;" parent="1" vertex="1">
          <mxGeometry x="1030" y="662.5" width="100" height="120" as="geometry" />
        </mxCell>
        <mxCell id="liCN6XQj_wZ74_ZR0JUV-17" value="ROS nodes" style="rounded=0;whiteSpace=wrap;html=1;fillColor=#d5e8d4;strokeColor=#82b366;fontColor=#000000;" parent="1" vertex="1">
          <mxGeometry x="1040" y="672.5" width="80" height="30" as="geometry" />
        </mxCell>
        <mxCell id="liCN6XQj_wZ74_ZR0JUV-18" value="Peripherals" style="rounded=0;whiteSpace=wrap;html=1;fillColor=#dae8fc;strokeColor=#6c8ebf;fontColor=#000000;" parent="1" vertex="1">
          <mxGeometry x="1040" y="707.5" width="80" height="30" as="geometry" />
        </mxCell>
        <mxCell id="liCN6XQj_wZ74_ZR0JUV-19" value="UI" style="rounded=0;whiteSpace=wrap;html=1;fillColor=#e1d5e7;strokeColor=#9673a6;fontColor=#000000;" parent="1" vertex="1">
          <mxGeometry x="1040" y="742.5" width="80" height="30" as="geometry" />
        </mxCell>
        <mxCell id="liCN6XQj_wZ74_ZR0JUV-24" style="edgeStyle=orthogonalEdgeStyle;rounded=0;orthogonalLoop=1;jettySize=auto;html=1;exitX=0.5;exitY=1;exitDx=0;exitDy=0;startArrow=classic;startFill=1;fontColor=#000000;" parent="1" source="liCN6XQj_wZ74_ZR0JUV-21" target="liCN6XQj_wZ74_ZR0JUV-21" edge="1">
          <mxGeometry relative="1" as="geometry" />
        </mxCell>
        <mxCell id="jXuBJ1nVAAcOgqzTFtKq-2" value="&lt;div align=&quot;left&quot;&gt;rosaria&lt;span style=&quot;font-weight: normal&quot;&gt; (manual mode)&lt;/span&gt;&lt;/div&gt;&lt;div align=&quot;left&quot;&gt;&lt;span style=&quot;font-weight: normal&quot;&gt;- joystick&lt;/span&gt;&lt;/div&gt;&lt;div align=&quot;left&quot;&gt;&lt;span style=&quot;font-weight: normal&quot;&gt;- keyboard&lt;br&gt;&lt;/span&gt;&lt;/div&gt;" style="rounded=0;whiteSpace=wrap;html=1;fillColor=#d5e8d4;strokeColor=#82b366;fontColor=#000000;fontStyle=1;align=left;" parent="1" vertex="1">
          <mxGeometry x="774" y="442" width="136" height="70" as="geometry" />
        </mxCell>
        <mxCell id="jXuBJ1nVAAcOgqzTFtKq-4" value="" style="edgeStyle=orthogonalEdgeStyle;rounded=0;orthogonalLoop=1;jettySize=auto;html=1;" parent="1" source="jXuBJ1nVAAcOgqzTFtKq-3" target="liCN6XQj_wZ74_ZR0JUV-14" edge="1">
          <mxGeometry relative="1" as="geometry" />
        </mxCell>
        <mxCell id="jXuBJ1nVAAcOgqzTFtKq-3" value="&lt;div&gt;Joystick&lt;/div&gt;" style="rounded=0;whiteSpace=wrap;html=1;fillColor=#dae8fc;strokeColor=#6c8ebf;fontColor=#000000;" parent="1" vertex="1">
          <mxGeometry x="794.5" y="635" width="60" height="40" as="geometry" />
        </mxCell>
        <mxCell id="jXuBJ1nVAAcOgqzTFtKq-9" value="" style="edgeStyle=orthogonalEdgeStyle;rounded=0;orthogonalLoop=1;jettySize=auto;html=1;startArrow=classic;startFill=1;" parent="1" source="jXuBJ1nVAAcOgqzTFtKq-6" target="liCN6XQj_wZ74_ZR0JUV-14" edge="1">
          <mxGeometry relative="1" as="geometry" />
        </mxCell>
        <mxCell id="jXuBJ1nVAAcOgqzTFtKq-6" value="Laser, sonar, bumper" style="rounded=0;whiteSpace=wrap;html=1;fillColor=#dae8fc;strokeColor=#6c8ebf;fontColor=#000000;" parent="1" vertex="1">
          <mxGeometry x="608" y="715" width="120" height="40" as="geometry" />
        </mxCell>
        <mxCell id="jXuBJ1nVAAcOgqzTFtKq-16" value="&lt;div&gt;cyborg_primary_states&lt;/div&gt;" style="rounded=0;whiteSpace=wrap;html=1;fillColor=#d5e8d4;strokeColor=#82b366;fontColor=#000000;" parent="1" vertex="1">
          <mxGeometry x="365.5" y="238" width="140" height="30" as="geometry" />
        </mxCell>
        <mxCell id="jXuBJ1nVAAcOgqzTFtKq-20" style="edgeStyle=orthogonalEdgeStyle;rounded=0;orthogonalLoop=1;jettySize=auto;html=1;exitX=0.5;exitY=0;exitDx=0;exitDy=0;entryX=0.5;entryY=1;entryDx=0;entryDy=0;startArrow=classic;startFill=1;" parent="1" source="1Ipf9dVRUQRrrsdZAD5U-28" target="liCN6XQj_wZ74_ZR0JUV-13" edge="1">
          <mxGeometry relative="1" as="geometry" />
        </mxCell>
        <mxCell id="1Ipf9dVRUQRrrsdZAD5U-28" value="Arduino&lt;br&gt;- LED: startup visualization" style="rounded=0;whiteSpace=wrap;html=1;align=left;fillColor=#dae8fc;strokeColor=#6c8ebf;fontColor=#000000;" parent="1" vertex="1">
          <mxGeometry x="279.5" y="710" width="150" height="45" as="geometry" />
        </mxCell>
        <mxCell id="jXuBJ1nVAAcOgqzTFtKq-25" value="&lt;div&gt;&lt;b&gt;cyborg_controller&lt;/b&gt;&lt;/div&gt;&lt;div&gt;SMACH state-machine&lt;br&gt;&lt;/div&gt;" style="rounded=0;whiteSpace=wrap;html=1;fillColor=#d5e8d4;strokeColor=#82b366;fontColor=#000000;" parent="1" vertex="1">
          <mxGeometry x="545.5" y="228" width="170" height="50" as="geometry" />
        </mxCell>
        <mxCell id="HqgvPJcCoIpI_5qpytdA-4" style="edgeStyle=orthogonalEdgeStyle;rounded=0;orthogonalLoop=1;jettySize=auto;html=1;exitX=0.5;exitY=0;exitDx=0;exitDy=0;entryX=0.5;entryY=1;entryDx=0;entryDy=0;endArrow=none;endFill=0;" edge="1" parent="1" source="HqgvPJcCoIpI_5qpytdA-1" target="1Ipf9dVRUQRrrsdZAD5U-10">
          <mxGeometry relative="1" as="geometry" />
        </mxCell>
        <mxCell id="HqgvPJcCoIpI_5qpytdA-1" value="rosarnl" style="rounded=0;whiteSpace=wrap;html=1;fillColor=#d5e8d4;strokeColor=#82b366;fontColor=#000000;fontStyle=1" vertex="1" parent="1">
          <mxGeometry x="599" y="530" width="120" height="30" as="geometry" />
        </mxCell>
      </root>
    </mxGraphModel>
  </diagram>
</mxfile>
